<svg width="48" height="48" viewBox="0 0 48 48" fill="none" xmlns="http://www.w3.org/2000/svg">
<rect x="9.59998" y="9.60001" width="28.8" height="28.8" rx="14.4" fill="black" fill-opacity="0.1"/>
<path d="M20.1197 30.8V28.08H18.3797V26.78H20.1197V25H18.3797V23.48H20.1197V16.52H23.8797C25.6263 16.52 26.9197 16.8733 27.7597 17.58C28.613 18.2867 29.0397 19.3133 29.0397 20.66C29.0397 22.02 28.5797 23.0867 27.6597 23.86C26.7397 24.62 25.3863 25 23.5997 25H21.9197V26.78H25.2197V28.08H21.9197V30.8H20.1197ZM21.9197 23.48H23.3397C24.553 23.48 25.493 23.28 26.1597 22.88C26.8397 22.48 27.1797 21.76 27.1797 20.72C27.1797 19.8133 26.8997 19.14 26.3397 18.7C25.7797 18.26 24.9063 18.04 23.7197 18.04H21.9197V23.48Z" fill="black" fill-opacity="0.87"/>
</svg>
