<svg width="48" height="48" viewBox="0 0 48 48" fill="none" xmlns="http://www.w3.org/2000/svg">
<path d="M9.59998 24C9.59998 31.9529 16.0471 38.4 24 38.4C31.9529 38.4 38.4 31.9529 38.4 24C38.4 16.0471 31.9529 9.6 24 9.6C16.0471 9.6 9.59998 16.0471 9.59998 24Z" fill="#FAEB00"/>
<path fill-rule="evenodd" clip-rule="evenodd" d="M23.981 27.0842L30.475 33.6L33.018 31.0466L26.5188 24.5126L27.785 23.248V20.7063L28.6883 19.7999L28.6909 21.9055L29.5748 22.7794L32.7432 19.5882L33.6 20.4385C33.6 19.8912 33.442 18.0022 31.9311 16.5211C30.2416 14.8654 28.5537 15.8315 27.9689 16.4199L24.9075 19.4993L25.6698 20.2662L23.981 21.9563L22.2968 20.2662L23.0602 19.4993L19.996 16.4199C19.4147 15.8315 17.7247 14.8654 16.0309 16.5211C14.5281 18.0022 14.4 19.8929 14.4 20.4415L15.2231 19.5882L18.3927 22.7794L19.2766 21.8966V19.7999L20.182 20.7063L20.1791 23.2404L21.4483 24.5135L15.0122 30.9804L17.5524 33.532L23.981 27.0842Z" fill="black"/>
</svg>

