<svg width="48" height="48" viewBox="0 0 48 48" fill="none" xmlns="http://www.w3.org/2000/svg">
<rect x="9.59998" y="9.6" width="28.8" height="28.8" rx="14.4" fill="white"/>
<path d="M24 9.6C21.1517 9.6 18.3674 10.4447 15.9992 12.0272C13.6311 13.6097 11.7854 15.859 10.6956 18.4905C9.60587 21.1221 9.32101 24.0177 9.87705 26.8112C10.4331 29.6047 11.8051 32.1705 13.8195 34.1842C15.8339 36.1978 18.4002 37.5689 21.1938 38.1239C23.9875 38.679 26.883 38.3931 29.5142 37.3024C32.1454 36.2117 34.394 34.3652 35.9756 31.9965C37.5573 29.6277 38.401 26.8431 38.4 23.9948C38.3986 20.1766 36.8809 16.5152 34.1805 13.8158C31.4801 11.1164 27.8182 9.6 24 9.6V9.6ZM20.9518 31.0607C21.1048 31.1462 21.2381 31.263 21.3429 31.4034C21.4478 31.5438 21.5219 31.7047 21.5604 31.8756C21.6396 32.2083 21.584 32.5587 21.4057 32.8504C21.2974 33.0246 21.1449 33.1669 20.9637 33.2629C20.7825 33.359 20.5791 33.4053 20.3742 33.3971C20.1316 33.3946 19.8925 33.3401 19.6728 33.2372L18.9971 32.9175C17.5344 32.1118 16.3191 30.9225 15.4821 29.4775C14.6451 28.0325 14.218 26.3866 14.247 24.7169V23.2728C14.2215 21.5993 14.6527 19.9505 15.4942 18.5038C16.3357 17.0571 17.5557 15.8671 19.0229 15.0619L19.6831 14.7524C19.9031 14.6512 20.1423 14.5985 20.3845 14.5977C20.5893 14.5901 20.7925 14.6366 20.9736 14.7326C21.1547 14.8286 21.3073 14.9706 21.416 15.1444C21.5044 15.2879 21.5636 15.4474 21.5901 15.6138C21.6167 15.7802 21.6101 15.9502 21.5708 16.114C21.533 16.2887 21.4583 16.4532 21.3515 16.5964C21.2447 16.7397 21.1084 16.8584 20.9518 16.9444C20.0972 17.3468 19.3765 17.9869 18.8762 18.7881C18.3758 19.5894 18.117 20.5179 18.1306 21.4625V26.5736C18.1242 27.5127 18.3864 28.434 18.8862 29.229C19.3861 30.024 20.1028 30.6596 20.9518 31.0607ZM33.7324 24.7169C33.7603 26.3876 33.3317 28.0343 32.4928 29.4794C31.6539 30.9245 30.4366 32.1132 28.9719 32.9175L28.2963 33.2372C28.0768 33.3407 27.8374 33.3952 27.5948 33.3971C27.3899 33.4053 27.1865 33.359 27.0053 33.2629C26.8241 33.1669 26.6716 33.0246 26.5633 32.8504C26.3902 32.5568 26.3349 32.2084 26.4086 31.8756C26.4471 31.7047 26.5212 31.5438 26.6261 31.4034C26.731 31.263 26.8642 31.1462 27.0172 31.0607C27.8739 30.6613 28.5977 30.024 29.1025 29.2249C29.6072 28.4257 29.8716 27.4982 29.8642 26.553V21.4625C29.874 20.5207 29.6128 19.596 29.1117 18.7986C28.6105 18.0011 27.8906 17.3647 27.0378 16.965C26.8805 16.8785 26.7432 16.7599 26.6348 16.6168C26.5264 16.4738 26.4493 16.3095 26.4086 16.1347C26.3341 15.8036 26.3895 15.4565 26.5633 15.165C26.6716 14.9909 26.8241 14.8486 27.0053 14.7525C27.1865 14.6565 27.3899 14.6102 27.5948 14.6183C27.8371 14.6185 28.0764 14.6713 28.2963 14.7731L28.9564 15.0825C30.4244 15.8869 31.645 17.0766 32.4866 18.5236C33.3282 19.9705 33.759 21.6197 33.7324 23.2934V24.7169Z" fill="#00B3E1"/>
</svg>
