<svg width="48" height="48" viewBox="0 0 48 48" fill="none" xmlns="http://www.w3.org/2000/svg">
<path d="M24 38.4C31.9529 38.4 38.4 31.9529 38.4 24C38.4 16.0471 31.9529 9.6 24 9.6C16.0471 9.6 9.59998 16.0471 9.59998 24C9.59998 31.9529 16.0471 38.4 24 38.4Z" fill="white"/>
<path fill-rule="evenodd" clip-rule="evenodd" d="M36.3652 21.9896L35.8979 22.3682C34.3411 23.3835 32.601 24.1029 30.7693 24.4884C25.9001 25.7505 22.3556 26.003 18.3304 27.0125C17.5231 27.2081 16.7329 27.4655 15.9673 27.7822C16.7477 28.1739 17.5496 28.5236 18.3694 28.8297C19.9335 28.3576 21.5303 27.995 23.1476 27.7447C24.0566 27.593 26.8351 27.1006 28.8474 26.6719C32.4699 25.8892 37.7804 24.2106 36.3656 22.0019L36.3652 21.9896ZM34.041 17.4077C33.1474 17.0123 32.2226 16.6874 31.2755 16.436C30.7621 16.874 30.179 17.2278 29.549 17.4835C30.6687 17.7224 31.774 18.0215 32.8596 18.3797C33.0545 18.4805 33.9241 17.6602 34.067 17.4709L34.041 17.4077ZM16.2661 22.2796C20.9924 20.8789 25.9781 20.4498 31.0157 19.0992C29.3706 18.5413 27.6136 18.3684 25.8871 18.5947C22.773 18.9565 19.6971 19.5814 16.6944 20.4624C15.578 20.7904 9.70928 22.4563 11.3973 24.8037C11.3973 24.8037 12.4098 23.4156 16.2661 22.2796ZM12.994 30.3194C12.994 30.7481 13.2408 31.1393 13.825 31.581C13.9004 31.3514 14.0194 31.1376 14.1757 30.95C13.7732 30.7463 13.379 30.5273 12.994 30.2937V30.3194ZM15.2662 30.1044C15.6788 29.8601 16.1135 29.6531 16.5649 29.486C15.8893 29.2087 15.2662 28.9056 14.4871 28.5772C14.1921 28.7534 13.9176 28.9607 13.6691 29.1956C14.1984 29.5107 14.7353 29.8137 15.2792 30.1044H15.2662ZM33.4438 20.008C32.0634 20.6034 30.629 21.0724 29.1592 21.4088C27.5492 21.8126 23.6279 22.3808 19.4083 23.3018C18.1096 23.5923 14.4611 24.4505 12.6822 25.9777C13.0887 26.2852 13.5232 26.5553 13.9809 26.7853C14.9789 26.2015 16.0658 25.7755 17.201 25.5233C19.452 24.9366 21.7369 24.4814 24.0436 24.1601C27.1255 23.674 30.1642 22.9567 33.1324 22.0145C33.8696 21.7633 34.5617 21.4013 35.1838 20.9417C34.6518 20.5523 34.066 20.2382 33.4438 20.008ZM34.846 19.1498C35.2951 19.3514 35.7291 19.5833 36.1447 19.8441C36.4431 19.2759 36.2612 18.91 35.6381 18.3797C35.403 18.6673 35.1328 18.9259 34.8335 19.1498H34.846ZM12.7735 27.7569C12.4112 27.5497 12.0561 27.3308 11.7087 27.1006C11.5268 27.5171 11.8776 27.9715 12.2669 28.1987C12.4261 28.0417 12.5954 27.894 12.7735 27.7569ZM32.9506 14.6062C32.7957 14.9641 32.5657 15.2866 32.2754 15.5529C32.998 15.7549 33.7087 15.9951 34.4043 16.2725C34.3138 15.6288 33.5742 15.0104 32.9506 14.6062ZM10.6438 18.6575C15.6169 15.389 21.1097 13.4837 30.4056 15.099C30.649 14.9871 30.8612 14.8196 31.024 14.6108C31.1867 14.402 31.2953 14.1581 31.3405 13.8997C28.7359 13.0375 25.9856 12.6692 23.2386 12.8147C19.4014 12.9902 15.6472 13.9626 12.2279 15.6667L13.0719 14.594C16.4853 12.9331 20.2185 11.9874 24.0306 11.8178C26.5157 11.7117 29.0008 12.0413 31.3665 12.7894C31.0807 12.2343 30.4185 11.9565 29.4446 11.5274C26.3158 10.114 20.4857 9.98754 15.7209 12.0952C16.3461 11.6759 17.0012 11.3007 17.6813 10.9722C20.0061 9.99359 22.5246 9.52805 25.0561 9.60901C27.8308 9.60325 30.5075 10.6071 32.5608 12.4235C32.8311 12.7352 33.0264 13.1017 33.1324 13.4963C34.2841 13.9795 35.2672 14.7772 35.9629 15.7928C36.1663 16.236 36.234 16.7269 36.1577 17.2066C36.6349 17.4806 37.0466 17.8507 37.3651 18.292C37.5822 18.6215 37.728 18.9907 37.7934 19.377C37.8532 19.6548 37.8505 19.9419 37.7856 20.2187C37.7206 20.4954 37.5949 20.7551 37.417 20.9801C37.8839 21.2764 38.2286 21.7232 38.391 22.2421C38.4337 22.8299 38.3241 23.4188 38.0722 23.9547C37.8203 24.4905 37.4342 24.9563 36.9494 25.3091C35.3269 26.5193 33.4732 27.4031 31.4964 27.9091C27.6011 28.8934 24.1731 29.3098 21.4336 29.8148C23.2632 30.2886 25.1497 30.522 27.0429 30.5086C30.8577 30.3949 34.5978 29.4504 37.9882 27.7447C37.9882 27.7447 37.8713 28.111 37.7544 28.4263C34.0553 30.4017 29.9114 31.4554 25.6923 31.4933C23.3911 31.4101 21.1118 31.028 18.9146 30.3573C18.2688 30.5168 17.6385 30.7326 17.0321 31.001C19.6432 32.1941 22.4728 32.8678 25.3549 32.9826C29.2005 33.0622 33.0262 32.4239 36.625 31.1021C36.4431 31.2788 36.3526 31.5688 36.1707 31.7328C33.5473 32.9125 30.7375 33.6508 27.8605 33.9162C25.5537 34.0315 23.2409 33.892 20.9664 33.5002C19.1966 33.1351 17.4788 32.5629 15.8504 31.796C15.5775 31.9941 15.3956 32.2887 15.3441 32.6163C21.7454 35.9733 27.731 36.0492 34.5477 33.8783L33.9245 34.4714C31.1098 35.75 28.0319 36.3852 24.9263 36.3284C21.8207 36.2715 18.7696 35.5242 16.0062 34.1434C15.8485 34.0804 15.6965 34.0044 15.552 33.9162C17.6368 35.9671 20.3926 37.2439 23.3425 37.5258C26.0099 37.7274 28.6909 37.3791 31.2106 36.5036L30.0812 37.0967C27.9395 38.1075 25.5593 38.5432 23.1866 38.3587C20.049 38.232 17.0648 37.0035 14.7859 34.9005C14.2805 34.416 13.9443 33.7892 13.825 33.1086C12.8992 32.6675 12.1205 31.9806 11.5788 31.127C11.3226 30.6586 11.2576 30.1133 11.3969 29.6002C11.4203 29.4522 11.464 29.3079 11.5268 29.1711C11.0208 28.8748 10.5797 28.4845 10.2285 28.0225C10.0538 27.6938 9.97472 27.3249 9.99983 26.9557C10.0249 26.5864 10.1533 26.2309 10.371 25.9275C10.1022 25.6494 9.88292 25.3295 9.72227 24.9812C9.60964 24.6088 9.57431 24.2183 9.61834 23.8325C9.73473 23.1304 10.0596 22.4768 10.5529 21.9521C12.0135 20.5006 13.8545 19.4662 15.8763 18.961C17.756 18.3499 19.6728 17.8526 21.6155 17.4717C24.1454 17.0935 26.651 16.5752 29.1203 15.9192C25.8714 15.2844 22.5245 15.2925 19.2789 15.943C16.0334 16.5934 12.9554 17.873 10.2285 19.7054L10.6438 18.6575Z" fill="#1D5378"/>
</svg>
