<svg width="48" height="48" viewBox="0 0 48 48" fill="none" xmlns="http://www.w3.org/2000/svg">
<rect x="9.59998" y="9.6" width="28.8" height="28.8" rx="14.4" fill="#EE3524"/>
<path d="M24 15.6C25.2729 15.6 25.6728 16.4772 26.0066 17.3557C26.1488 17.7285 29.4551 26.4445 29.5536 26.7061C29.5804 26.7793 29.5635 26.9 29.4452 26.942C29.3283 26.9854 27.6104 27.628 27.5161 27.6633C27.4203 27.6972 27.3133 27.647 27.2795 27.5562C27.2443 27.4653 26.5318 25.566 26.4515 25.3517C26.215 25.3517 21.7893 25.3517 21.5527 25.3517C21.4724 25.5646 20.7529 27.4694 20.7191 27.5562C20.6853 27.6429 20.5825 27.7012 20.4825 27.6633C20.3825 27.6253 18.6562 26.98 18.552 26.942C18.4548 26.9054 18.4112 26.7983 18.445 26.7061C18.5661 26.3794 21.823 17.8031 21.9892 17.3557C22.3117 16.4921 22.7271 15.6 24 15.6ZM18.1845 31.1976C18.0831 31.1976 18 31.279 18 31.3807V33.417C18 33.5187 18.0831 33.6 18.1845 33.6H29.8155C29.9169 33.6 30 33.5187 30 33.417V31.3807C30 31.279 29.9183 31.1976 29.8155 31.1976H18.1845ZM23.9901 18.447L22.3328 23.2355H25.6728L24.0113 18.447H23.9901Z" fill="white"/>
</svg>
