<svg width="48" height="48" viewBox="0 0 48 48" fill="none" xmlns="http://www.w3.org/2000/svg">
<path d="M9.60693 22.3696C9.60054 22.1431 9.83834 21.9952 10.0412 22.0963C12.3208 23.4156 14.6004 24.6982 16.88 26.0175C17.358 26.3107 17.8727 26.7871 18.3507 26.7871C18.8287 26.7871 19.3435 26.3107 19.8214 26.0175C25.4101 22.8293 30.9989 19.641 36.5508 16.4528C36.8082 16.3062 36.9185 16.3429 37.0288 16.5994C41.1095 25.0468 35.6461 35.2417 26.4029 37.0114C24.9169 37.2582 23.4801 37.2548 22.0275 37.048C14.3946 36.1558 9.80871 29.5267 9.60693 22.3696Z" fill="#2B9E2F"/>
<path d="M29.6843 9.60001C29.7266 9.60001 29.768 9.61187 29.8045 9.63329C29.8641 9.66825 29.9253 9.70173 29.9876 9.73426C30.6162 10.0622 30.6251 10.8437 30.0101 11.1963C29.4254 11.5315 28.8458 11.8667 28.2783 12.2019C25.1163 14.0342 21.9175 15.8299 18.7554 17.6622C18.5348 17.8088 18.351 17.8088 18.0936 17.6622C16.4514 16.6935 14.8093 15.7553 13.1671 14.8197C12.8497 14.6389 12.3057 14.477 12.5007 14.1681C12.5128 14.1489 12.5265 14.1287 12.5417 14.1075C13.3138 13.118 13.3138 13.118 14.3433 13.741C15.5934 14.4373 16.8435 15.1702 18.0936 15.8665C18.2775 15.9765 18.4245 15.9765 18.6451 15.8665C22.1588 13.8237 25.7088 11.8172 29.2228 9.77464C29.2544 9.75627 29.2857 9.74875 29.3214 9.74128C29.4334 9.71793 29.5476 9.60001 29.6619 9.60001C29.6693 9.60001 29.6767 9.60001 29.6843 9.60001Z" fill="#2B9E2F"/>
<path d="M9.87325 20.078C9.88279 20.0305 9.89391 19.9828 9.89391 19.9343C10.0778 18.5051 10.0778 18.5051 11.3279 19.2014C13.5707 20.484 15.7768 21.73 17.9828 23.0492C18.2402 23.1958 18.4608 23.1958 18.7182 23.0492C24.0495 19.971 29.3809 16.9293 34.6754 13.8877C35.0063 13.7044 35.1534 13.7044 35.4108 13.9976C36.1094 14.9138 36.1094 14.9138 35.1534 15.4635C29.675 18.615 24.1966 21.7666 18.7182 24.9182C18.4976 25.0648 18.3137 25.0648 18.0564 24.9182C15.4459 23.4157 12.7986 21.9132 10.1881 20.4107C10.0537 20.3438 9.82725 20.3074 9.87325 20.078Z" fill="#2B9E2F"/>
<path d="M33.2013 11.809C33.6596 12.1187 33.5839 12.7686 33.105 13.0455C31.5555 13.9416 30.0271 14.7998 28.4987 15.6833C25.2264 17.5523 21.9908 19.4212 18.7185 21.2902C18.4611 21.4368 18.2773 21.4734 17.9831 21.2902C15.7035 19.9709 13.4239 18.6517 11.1076 17.369C10.7766 17.1858 10.7766 17.0392 10.9237 16.7461C11.4385 15.72 11.4385 15.72 12.3944 16.2697C14.2328 17.3324 16.108 18.3951 17.9464 19.4579C18.2405 19.6045 18.4243 19.6045 18.6817 19.4579C23.2042 16.856 27.7266 14.2908 32.2123 11.6889C32.5543 11.4843 32.8009 11.4701 33.0704 11.7051C33.1123 11.7416 33.1553 11.7779 33.2013 11.809Z" fill="#2B9E2F"/>
</svg>
