<svg width="48" height="48" viewBox="0 0 48 48" fill="none" xmlns="http://www.w3.org/2000/svg">
<path d="M24 38.4C31.9529 38.4 38.4 31.9529 38.4 24C38.4 16.0471 31.9529 9.60001 24 9.60001C16.0471 9.60001 9.59998 16.0471 9.59998 24C9.59998 31.9529 16.0471 38.4 24 38.4Z" fill="white"/>
<path d="M24.4195 18.935L24.4386 18.9074C24.6011 18.6679 24.5331 18.4911 24.4245 18.3956L22.7206 17.3363C22.6601 17.2952 22.6106 17.2399 22.5764 17.1752C22.5422 17.1105 22.5245 17.0384 22.5246 16.9653C22.5246 16.7205 22.6696 16.5358 22.9989 16.4441C24.0498 16.1529 27.7456 16.0005 29.0012 16.0005C29.437 16.0005 30.1876 15.9986 30.8607 16.0171L30.8316 15.9883C28.9902 14.4021 26.6005 13.4448 23.9878 13.4448C18.1646 13.4448 13.4448 18.2031 13.4448 24.0736C13.4448 26.6543 14.3567 29.0197 15.874 30.8607C17.1982 28.9414 20.4676 24.2076 21.1845 23.2412C22.0103 22.1271 23.8923 19.6487 24.2113 19.2286L24.227 19.2095L24.4195 18.9353V18.935ZM17.309 32.3529C19.1851 33.7857 21.4813 34.5598 23.8419 34.5552C29.7591 34.5552 34.5552 29.8001 34.5552 23.9336C34.5579 22.2192 34.1406 20.5301 33.3397 19.0142L33.3403 19.0151C33.7094 18.6626 34.1345 18.1048 33.8546 17.4061C33.7679 17.1982 33.3516 16.7261 33.2442 16.6116L33.2589 16.6519C33.5197 17.4324 33.0038 17.921 32.6331 18.2538C32.43 18.4366 29.7099 20.9795 26.5194 23.7455C23.7076 26.1829 20.5622 28.6634 18.7406 30.0158C16.1777 31.9181 15.6787 32.1945 15.6787 32.1945C15.5967 32.2357 15.5068 32.2587 15.4151 32.2619C15.2586 32.2619 15.1227 32.1917 15.037 32.0815L15.0341 32.0765L15.0282 32.1582C15.3027 32.599 15.7585 33.1108 16.0237 33.1108C16.1069 33.1108 16.22 33.0795 16.2879 33.0441C16.2879 33.0441 16.4885 32.9327 17.309 32.3523" fill="#E2001A"/>
<path d="M24.1577 18.4535C24.3186 18.2156 24.2513 18.0381 24.1437 17.9433L22.4535 16.8877C22.3933 16.8464 22.3442 16.791 22.3103 16.7263C22.2765 16.6617 22.259 16.5897 22.2594 16.5167C22.2594 16.2738 22.4028 16.0897 22.7296 15.9971C23.7724 15.7072 27.4362 15.5557 28.6815 15.5557C29.2694 15.5557 30.4333 15.551 31.1997 15.6026C32.059 15.6599 32.7117 15.8399 32.8738 16.2619C33.1912 17.0877 32.6653 17.5973 32.2916 17.9404C32.0931 18.1236 29.4388 20.6605 26.3265 23.4193C23.5817 25.851 20.5124 28.3266 18.7349 29.6761C16.2337 31.5732 15.7478 31.8486 15.7478 31.8486C15.6681 31.8895 15.5804 31.9125 15.4908 31.9159C15.231 31.9159 15.0278 31.715 15.0278 31.452C15.0278 31.3518 15.0576 31.2586 15.1092 31.1828C15.1092 31.1828 20.0346 23.9909 20.9306 22.7751C21.8265 21.5592 23.9781 18.7149 23.9781 18.7149C23.9781 18.7149 24.0031 18.682 24.1574 18.4532" fill="white"/>
</svg>
